<?xml version="1.0" encoding="utf-8"?>
<!-- Generator: Adobe Illustrator 28.3.0, SVG Export Plug-In . SVG Version: 6.00 Build 0)  -->
<svg version="1.1" id="Layer_1" xmlns="http://www.w3.org/2000/svg" xmlns:xlink="http://www.w3.org/1999/xlink" x="0px" y="0px"
	 viewBox="0 0 1296 1728" style="enable-background:new 0 0 1296 1728;" xml:space="preserve">
<style type="text/css">
	.st0{fill:#0059BB;stroke:#000000;stroke-miterlimit:10;}
	.st1{fill:#00F406;}
	.st2{fill:#0B1F0F;}
	.st3{fill:#081A0A;}
</style>
<polygon class="st0" points="292.6,697.4 292.7,699.8 292,698.6 "/>
<g>
	<g>
		<path class="st1" d="M375.6,1088.5c-30.8-97.6,10.4-203.9,97-257.9c133.1-83.1,309.5-12,346,141c0.3,1.6,1.9,8.1,2.1,9.9
			c0.6,3,1.2,7.2,1.7,9.9l0.8,6.7c3.9,35.6-0.6,72-13.6,104.8c16.2-56.9,10.6-118.7-16.7-170.8c-59.9-114.1-201.7-155-312.6-89
			C395.8,893.6,354.8,992.6,375.6,1088.5L375.6,1088.5z"/>
	</g>
	<g>
		<path class="st1" d="M809.6,1102.9c22.7-115.6-47-229.2-161.6-258.4c-113-28.9-229.3,36.4-263.9,147.7
			c-7.3,23.1-10.7,47.6-10.2,71.9c0.1,8.2,0.7,16.3,1.7,24.5c-12.2-52.3-3-110,24.5-156.4c41.4-70.8,119.7-113.1,201.5-110.3
			C745,826.4,850.6,963.9,809.6,1102.9L809.6,1102.9z"/>
	</g>
	<g>
		<path class="st1" d="M809.6,1102.9c8-92.6-40-178.7-124.3-218.5c-66.6-31.7-148.7-26.1-210.3,14.4c-45.2,29.3-79,75.6-92.1,128
			c-3.2,12.8-5.5,25.8-6.5,39c-0.7,7.5-0.8,15.1-0.7,22.8c-6.1-45.4,4-93.9,27.8-133.5c54.3-91.3,167.4-129.9,266.8-93.6
			C768.8,897.4,830.1,999.1,809.6,1102.9L809.6,1102.9z"/>
	</g>
	<g>
		<path class="st1" d="M809.6,1102.9c-2.1-63.4-30.1-122.9-79-163c-81.4-67.8-201.9-66-281.3,4c-42.2,36.5-68.1,89-73.6,144.7
			c-0.6-28.3,5.1-56.8,16.1-83.3c42-99.4,153.2-151.1,256.9-123.9C747.8,906.9,818.3,999.9,809.6,1102.9L809.6,1102.9z"/>
	</g>
	<g>
		<path class="st1" d="M809.6,1102.9c-10.2-59.1-42.7-112.4-91.9-146.6c-79.3-56.2-188.4-52.7-264,8.3
			c-39.2,31.1-66.2,75.2-78.1,123.9c5.7-52.5,33.2-102.8,74-136.7c60-50.9,145.2-65.1,218.8-38C748,942.9,806,1017.8,809.6,1102.9
			L809.6,1102.9z"/>
	</g>
	<g>
		<path class="st1" d="M809.6,1102.9c-30.3-91.2-115.4-157.8-211.9-160.3c-46.7-1.7-93.7,11.7-132.7,37.4
			c-39.8,26-70.9,64.3-89.3,108.5c12.3-47.4,42.4-90,82.2-118.9C587.8,874.8,777.1,944,809.6,1102.9L809.6,1102.9z"/>
	</g>
</g>
<g>
	<g>
		<path class="st2" d="M664.4,1388.3c-96,35.4-204.1-0.6-262.3-84.5c-89.4-129-26.8-308.5,124.2-352.4c1.6-0.4,8-2.3,9.8-2.6
			c2.9-0.7,7.1-1.5,9.9-2.2l6.6-1.1c35.4-5.6,71.9-2.9,105.3,8.5c-57.6-13.5-119.1-4.9-169.8,24.9
			c-111.1,65.4-145.1,208.9-73.8,316.5C468.7,1377.5,569.5,1413.6,664.4,1388.3L664.4,1388.3z"/>
	</g>
	<g>
		<path class="st2" d="M657.9,954.1c-116.5-17.1-226.7,58-250.4,173.8c-23.4,114.2,47.4,227.3,160.2,256.5c23.4,6.2,48,8.4,72.3,6.7
			c8.2-0.5,16.3-1.5,24.4-2.9c-51.6,14.7-109.7,8.3-157.4-17c-72.7-38-118.7-114.1-119.8-196C384.8,1032,517.1,919.8,657.9,954.1
			L657.9,954.1z"/>
	</g>
	<g>
		<path class="st2" d="M657.9,954.1c-92.9-3.6-176.6,48.6-212.3,134.7c-28.5,68-18.9,149.8,24.5,209.4
			c31.4,43.8,79.3,75.3,132.3,85.9c12.9,2.6,26.1,4.3,39.3,4.6c7.6,0.3,15.2,0.1,22.8-0.4c-45.1,8.3-94,0.6-134.7-21.3
			c-93.8-49.8-137.8-161-106.3-262C454.6,1004.8,553.2,938.6,657.9,954.1L657.9,954.1z"/>
	</g>
	<g>
		<path class="st2" d="M657.9,954.1c-63.2,5.2-121.3,35.9-159.1,86.8c-63.8,84.6-56.3,204.8,17.5,280.8
			c38.5,40.4,92.2,63.7,148.1,66.6c-28.2,1.9-57-2.3-84-12.1c-101.3-37.2-158.3-145.8-136.1-250.6
			C465.1,1025.2,554.6,950.3,657.9,954.1L657.9,954.1z"/>
	</g>
	<g>
		<path class="st2" d="M657.9,954.1c-58.5,13-110.2,48.1-142.1,98.8c-52.3,82-43.6,190.7,21,263.3c32.9,37.6,78.3,62.5,127.5,72.1
			c-52.7-3.1-104.3-28.2-140-67.3c-53.7-57.5-72-141.9-48.5-216.7C501,1023.3,573,961.8,657.9,954.1L657.9,954.1z"/>
	</g>
	<g>
		<path class="st2" d="M657.9,954.1c-89.7,34.6-152.1,122.8-149.9,219.4c0.6,46.7,16.1,93.1,43.7,130.8
			c27.9,38.5,67.7,67.8,112.7,84c-47.9-10-91.9-38.1-122.7-76.4C440.8,1186.6,500.7,994.2,657.9,954.1L657.9,954.1z"/>
	</g>
</g>
<g>
	<g>
		<path class="st1" d="M957.3,1095.5c33.9,96.6-3.9,204.1-88.6,260.9c-130.4,87.3-308.9,21.9-350.3-129.8c-0.3-1.6-2.2-8-2.4-9.8
			c-0.6-2.9-1.4-7.1-2-9.9l-1-6.6c-5.1-35.5-1.7-72,10.2-105.2c-14.4,57.4-6.8,119,22.2,170.2c63.6,112.1,206.6,148.5,315.3,78.9
			C943.4,1291,981.2,1190.8,957.3,1095.5L957.3,1095.5z"/>
	</g>
	<g>
		<path class="st1" d="M523.1,1095c-18.9,116.2,54.4,227.6,169.8,253.1c113.8,25.2,228-43.7,259-156.1c6.5-23.3,9.1-47.9,7.9-72.2
			c-0.3-8.2-1.3-16.3-2.5-24.4c13.9,51.8,6.6,109.9-19.5,157.1c-39.1,72.1-116,116.9-197.9,116.7
			C596.6,1369.3,486.6,1235.3,523.1,1095L523.1,1095z"/>
	</g>
	<g>
		<path class="st1" d="M523.1,1095c-5.1,92.8,45.7,177.3,131.2,214.4c67.5,29.6,149.5,21.3,209.8-21.1c44.3-30.7,76.5-78.1,88-130.9
			c2.8-12.9,4.7-26,5.2-39.2c0.4-7.6,0.3-15.2,0-22.8c7.5,45.2-0.9,94-23.5,134.3c-51.3,93-163.2,135.2-263.6,102.1
			C570.5,1299.1,505.9,1199.5,523.1,1095L523.1,1095z"/>
	</g>
	<g>
		<path class="st1" d="M523.1,1095c4.1,63.3,34,121.8,84.2,160.4c83.6,65.1,203.9,59.5,281.1-13c41-37.9,65.2-91.2,68.9-147
			c1.5,28.2-3.2,56.9-13.4,83.8c-38.8,100.6-148.3,155.9-252.8,132.1C591.1,1289,517.7,1198.3,523.1,1095L523.1,1095z"/>
	</g>
	<g>
		<path class="st1" d="M523.1,1095c12.1,58.7,46.3,110.9,96.5,143.6c81.1,53.6,190,46.7,263.6-16.8c38.2-32.3,63.8-77.3,74.1-126.4
			c-4,52.7-29.9,103.8-69.5,138.9c-58.3,52.8-143,69.7-217.5,45C589.8,1253,529.5,1180,523.1,1095L523.1,1095z"/>
	</g>
	<g>
		<path class="st1" d="M523.1,1095c33.2,90.2,120.4,154,216.9,153.4c46.7,0.2,93.3-14.6,131.5-41.6c39-27.3,68.8-66.6,85.8-111.3
			c-10.8,47.8-39.5,91.3-78.3,121.4C752.1,1315.9,560.7,1252.8,523.1,1095L523.1,1095z"/>
	</g>
</g>
<g>
	<g>
		<path class="st3" d="M663.3,804.9c94.8-38.5,204-6,264.8,76c93.4,126,36.7,307.5-112.9,356.2c-1.6,0.4-7.9,2.6-9.7,2.9
			c-2.9,0.8-7,1.8-9.8,2.5l-6.6,1.3c-35.2,6.8-71.8,5.2-105.5-5.1c58,11.6,119.2,1.1,169-30.3c108.9-68.9,138.4-213.5,63.7-318.7
			C859.2,809.4,757.3,776.5,663.3,804.9L663.3,804.9z"/>
	</g>
	<g>
		<path class="st3" d="M683.7,1238.6c117,13.3,224.7-65.2,244.7-181.7c19.7-114.9-54.6-225.7-168.3-251.2
			c-23.6-5.4-48.3-6.8-72.5-4.4c-8.1,0.7-16.2,2.1-24.3,3.7c51.1-16.4,109.4-11.8,157.9,11.9c73.9,35.6,122.3,110.3,126,192.1
			C954.2,1152.1,825.5,1268.4,683.7,1238.6L683.7,1238.6z"/>
	</g>
	<g>
		<path class="st3" d="M683.7,1238.6c92.9,0.6,174.9-54.2,207.9-141.4c26.3-68.9,14.1-150.3-31.2-208.5
			c-32.8-42.7-81.7-72.7-134.9-81.6c-13-2.2-26.2-3.4-39.4-3.3c-7.6,0-15.2,0.4-22.8,1.1c44.8-9.7,93.9-3.6,135.3,17
			c95.3,46.8,142.9,156.5,114.6,258.4C885.3,1181.5,788.9,1250.8,683.7,1238.6L683.7,1238.6z"/>
	</g>
	<g>
		<path class="st3" d="M683.7,1238.6c63-7.2,120.1-39.8,156.2-91.8c61-86.6,49.7-206.5-26.5-280.1c-39.8-39.2-94.2-60.7-150.1-61.8
			c28.1-2.8,57,0.5,84.3,9.4c102.4,33.9,162.9,140.7,144.1,246.1C874.2,1161.4,787.1,1239.1,683.7,1238.6L683.7,1238.6z"/>
	</g>
	<g>
		<path class="st3" d="M683.7,1238.6c58.1-14.9,108.6-51.6,138.8-103.3c49.7-83.6,37.5-192-29.4-262.5
			c-34.1-36.6-80.2-60-129.8-67.9c52.8,1.4,105.1,24.8,142.1,62.8c55.5,55.7,76.5,139.5,55.4,215.1
			C838.3,1164.5,768.3,1228.2,683.7,1238.6L683.7,1238.6z"/>
	</g>
	<g>
		<path class="st3" d="M683.7,1238.6c88.5-37.5,148-127.6,142.8-224.1c-2.1-46.7-19.1-92.5-47.9-129.3
			c-29.1-37.6-69.8-65.6-115.3-80.4c48.2,8.5,93.1,35.1,125,72.4C893.3,999.3,839.5,1193.6,683.7,1238.6L683.7,1238.6z"/>
	</g>
</g>
</svg>
